<svg fill="none" height="853" viewBox="0 0 3025 853" width="3025" xmlns="http://www.w3.org/2000/svg"><path d="m355.28 134.393c-192.97-45.3896-355.871714-14.599-355.871714-14.599l-.194699 683.617c60.993713 3.369 364.036413-143.954 598.897413-152.956 149.094-5.715 306.315 7.736 447.979 56.327 26.52 9.09 142.54 54.009 168.87 66.387 13.74 6.447 71.37 18.123 126.21 29.232 50.28 10.186 98.21 19.896 107.79 24.661 35.65 17.71 59.94 17.522 112.31 17.117 30.85-.238 71.43-.552 129.81 2.67 3.48.191 8.04.663 13.86 1.264 32.5 3.356 104.29 10.768 246.15-3.797 63.59-6.53 224.75-26.254 314.16-78.916 146.85-86.5 546.25 92.808 761.94 37.547l-.43-683.168s-296.79-63.2324-324.51-67.6753-363.38-53.67452-373.03-52.0651012c-6.72 1.1202712-46.41 3.6107712-79.73 5.7020212-14.55.91313-27.89 1.75013-36.74 2.36369-29.12 2.01879-112.62 22.03889-136.04 27.74159-23.42 5.7028-109.69 41.1566-109.69 41.1566s-32.21 11.7963-52.76 14.522c-20.55 2.7165-47.55 9.7315-47.55 9.7315l-2.45.902c-1.05.386-2.1.768-17.23 6.317-8.68 3.176-16.77 6.592-23.14 9.286-6.78 2.862-10.11 4.126-13.19 4.985-3.08.858 6.92-1.986-.04.001-6.96 1.988-15.22.746-32.28-.662-17.13-1.414-101.72-10.792-122.59-13.722-18.66-2.612-48.2.294-72 2.635-2.82.277-5.56.546-8.19.798-24.83 2.372-85.45 17.852-101.01 22.597-9.98 3.043-41.06 9.466-66.03 14.626-13.96 2.885-26.01 5.375-31.4 6.659-15.02 3.582-97.27 24.104-97.27 24.104l-24.13 4.038c-4.6.769-9.99 1.619-15.91 2.552-25.12 3.962-59.74 9.42-83.48 16.566-29.33 8.828-97.92 12.81-103.99 13.117s-90.38 6.205-90.38 6.205-102.91 10.782-104.7 11.443c-1.79.66-46.63 4.595-52.7 4.893-166.37 8.414-291.537-67.09-449.32-104.203z" fill="#eaebea"/></svg>