<svg fill="none" height="308" viewBox="0 0 430 308" width="430" xmlns="http://www.w3.org/2000/svg"><path d="m426.125 217.695h-20.125v35.375h-48.75v-35.375h-72.875v-36.25l76-111.1249h45.625v110.4999h20.125zm-68.875-36.875v-21.25c0-1.917.042-4.333.125-7.25s.167-5.833.25-8.75c.167-3 .292-5.5.375-7.5.167-2.083.292-3.208.375-3.375h-1.375c-1.583 3.75-3.042 6.875-4.375 9.375-1.333 2.417-3.083 5.292-5.25 8.625l-20.25 30.125z" fill="#9b9371"/><path d="m244.865 194.403c.458-.309.906-.627 1.354-.966.518-.388 1.036-.806 1.524-1.234.548-.478 1.075-.986 1.593-1.514.279-.289.548-.577.817-.876 3.325-3.694 5.914-8.484 7.736-14.359 0 0 0-.01 0-.02.04-.119.07-.229.1-.348.1-.319.189-.637.289-.966.03-.1.05-.199.079-.299.03-.099.05-.189.08-.288.04-.14.07-.279.11-.419.707-2.748 1.224-5.755 1.553-8.991.189-1.832.319-3.744.388-5.726 0 0 0-.069 0-.099 0-.05 0-.1 0-.15 0 0 0-.02 0-.029 0-.289.02-.578.02-.867 0-.378.01-.757.02-1.135 0-.488.03-.956.03-1.454v-66.8037l.06-.8862.139-2.1707c.03-.4282.07-.8464.11-1.2447.099-.8663.239-1.633.418-2.3001 0-.01 0-.0199 0-.0299 0-.0199.01-.0498.02-.0697 0-.01 0-.0199 0-.0299.02-.0597.03-.1095.05-.1692.02-.0598.04-.1295.059-.1892 0-.01 0-.0299.01-.0399 0 0 0-.0099 0-.0199 0-.0199.01-.0398.02-.0697 0-.0099 0-.0199.01-.0398.01-.0299.02-.0598.03-.0896.05-.1295.09-.249.14-.3685 0-.0099 0-.0199.009-.0298 0 0 0-.0199.01-.0299.06-.1394.12-.2688.18-.3883v-.0299h.02c.019-.0498.049-.0996.079-.1394.05-.0996.1-.1892.16-.2788.567-.936 1.264-1.5733 2.081-1.8919.119-.0498.239-.0896.368-.1295.259-.0796.518-.1493.787-.1991.149-.0299.308-.0498.468-.0697.478-.0598.976-.0697 1.493-.0398.667.0497 1.305.1294 1.912.2489.179.0398.359.0697.528.1195.757.2091 1.205.3385 2.29.7269.09.0298.179.0697.279.0995l-.418-.2887c-3.386-2.2603-8.922-5.5164-10.336-6.0342-1.573-.6572-3.286-.7767-4.152-.8364-1.145-.0797-2.181.0797-3.117.4481-.936.3784-1.713 1.1451-2.32 2.32-.607 1.1651-.986 2.8877-1.135 5.148l-.15 2.2504v83.7218c0 9.738-1.513 17.604-4.55 23.589-1.792 3.535-4.003 6.492-6.622 8.892 1.862-.807 3.635-1.783 5.308-2.908" fill="#9b9371"/><path d="m272.469 78.1612s-.07-.0399-.11-.0598c-.1-.0398-.189-.0697-.279-.0996-1.075-.3883-1.533-.5177-2.28-.7268-.169-.0399-.349-.0797-.528-.1195-.607-.1195-1.244-.2091-1.912-.249-.517-.0298-1.015-.0199-1.493.0399-.159.0199-.319.0398-.468.0697-.269.0497-.528.1194-.787.1991-.119.0398-.249.0896-.368.1394-.817.3286-1.514.9559-2.081 1.8919-.05.0896-.11.1792-.16.2788-.029.0498-.049.0996-.079.1494 0 0 0 .0199-.01.0298-.06.1195-.12.2589-.179.3884 0 0 0 .0199-.01.0299 0 .0099 0 .0199-.01.0298-.05.1195-.1.239-.14.3685-.01.0298-.02.0597-.03.0995 0 .01 0 .0199-.01.0299 0 .0199-.01.0498-.02.0697v.0199c0 .0199-.009.0299-.009.0498-.02.0597-.04.1195-.06.1892-.02.0498-.03.1095-.05.1693v.0298c0 .02-.02.0498-.02.0697v.0299c-.179.6771-.329 1.4438-.428 2.3101-.04.3884-.08.8066-.11 1.2447l-.139 2.1707-.06.8763v66.8044c0 .497-.02.965-.03 1.453 0 .379-.01.757-.02 1.135 0 .289-.01.578-.019.867v.03.139.11c-.07 1.991-.2 3.893-.389 5.725-.328 3.246-.856 6.243-1.553 8.992-.02.079-.04.159-.06.229v.019c-.01.05-.03.1-.04.15v.02c-.03.099-.05.199-.079.289-.03.099-.05.199-.08.298-.09.329-.189.647-.279.966-.01.04-.02.08-.03.12v.02c-.02.069-.04.139-.069.209v.02c-1.833 5.874-4.412 10.654-7.737 14.358-.269.299-.538.588-.817.876-.518.528-1.045 1.036-1.593 1.514-.498.428-1.006.846-1.523 1.235-.449.328-.897.657-1.355.965-1.673 1.136-5.307 2.908-5.297 2.908 0 0-.169.129-.448.348-1.304 1.146-2.708 2.131-4.212 3.008-.488.308-.956.577-1.394.796-5.417 2.719-11.67 4.083-18.77 4.083-3.106 0-5.845-.17-8.205-.508-2.359-.339-4.361-.737-6.024-1.205v-20.054l11.601-8.713c.049.01.099.02.149.03.956.209 1.981.408 3.067.607 1.095.2 2.27.289 3.505.289 1.623 0 3.087-.308 4.381-.926 1.265-.597 2.24-1.732 2.997-3.375.259-1.962.398-4.172.398-6.662v-97.821c-.029-.7568-.338-2.3201-.697-3.1167-.527-1.2048-1.254-2.0313-2.16-2.4595-.638-.2987-1.335-.4978-2.091-.5875-1.882-.0995-3.764-.1593-5.676-.1593-55.891-.0099-101.127 45.226-101.127 101.018 0 55.811 45.236 101.047 101.037 101.047s101.038-45.236 101.038-101.037c0-34.881-17.694-65.6196-44.579-83.7718" fill="#000"/><g fill="#9b9371"><path d="m211.867 185.352c2.798 0 5.307-.527 7.538-1.593.478-.229 1.045-.557 1.603-.946 1.484-1.155 2.718-2.828 3.684-5.028.568-1.305 1.016-2.858 1.334-4.66.06-.458.12-.936.19-1.424-.747 1.643-1.733 2.778-2.998 3.375-1.294.618-2.758.927-4.381.927-1.235 0-2.4-.1-3.505-.289-1.085-.199-2.111-.399-3.067-.608-.049-.01-.099-.02-.149-.03l-11.6 8.713c1.653.359 3.425.727 5.317 1.066 1.892.338 3.893.507 6.024.507"/><path d="m146.725 217.695h-20.125v35.375h-48.7504v-35.375h-72.87499v-36.25l75.99999-111.1249h45.6254v110.4999h20.125zm-68.8754-36.875v-21.25c0-1.917.0417-4.333.125-7.25s.1667-5.833.25-8.75c.1667-3 .2917-5.5.375-7.5.1667-2.083.2917-3.208.375-3.375h-1.375c-1.5833 3.75-3.0417 6.875-4.375 9.375-1.3333 2.417-3.0833 5.292-5.25 8.625l-20.25 30.125z"/></g></svg>