<svg fill="none" height="127" viewBox="0 0 3024 127" width="3024" xmlns="http://www.w3.org/2000/svg"><path d="m-702.389 99.0788c-18.863 0-96.192 14.3032-96.192 14.3032v.01 13.596h4712.001v-123.95492s-16.97-2.044799-26.4-2.044799c-9.44 0-11.33 0-22.64 4.089589-11.31 4.08958-50.93-2.04479-50.93-2.04479l-11.31 2.04479s-37.72 4.08959-60.35 4.08959c-16.08 0-57.82 2.06194-82.03 3.25764-9.88.4882-16.84.8319-17.94.8319h-5.66c-1.54 0-5.31.3024-10.29.7016-13.33 1.069-35.31 2.832-46.3 1.3432-9.03-1.2241-30.91 6.3429-49.03 12.6136-12.15 4.2035-22.62 7.8244-26.41 7.8244-7.49 0-20.9 5.1415-31.78 9.3086l-.02.0063c-2.82 1.0832-5.48 2.1004-7.81 2.944-3.56 1.286-5.07 1.9654-5.52 2.2926-.3.0523-.62.1119-.99.1777-5.79 1.047-20.28 3.6641-44.42 3.6641-21.05 0-43.02 5.9655-58.86 10.2677-6.87 1.8651-12.59 3.4175-16.58 4.0359-9.94 1.5396-23.09-6.1946-38.64-15.3429v-.002c-5.11-3.0013-10.47-6.1547-16.06-9.1827-22.63-12.2588-103.73-6.1344-128.26-4.0896-24.51 2.0448-131.11 1.1974-131.11 1.1974s-89.56 15.151-138.6 11.0614c-49.04-4.0895-132.03-6.1244-192.38 2.0448-60.36 8.1693-203.7 47.0009-203.7 47.0009s-32.07-2.0452-50.93-2.0452c-17.86 0-88.13 12.8232-95.56 14.1862-7.42-1.363-77.69-14.1862-95.55-14.1862-18.87 0-50.93 2.0452-50.93 2.0452s-143.34-38.8316-203.7-47.0009c-60.36-8.1692-143.35-6.1343-192.39-2.0448-49.04 4.0896-92.41 8.1792-92.41 8.1792s-152.78-18.3932-177.3-20.438-105.63-8.1692-128.25 4.0896c-5.59 3.0282-10.96 6.1817-16.06 9.1831v.0013c-15.55 9.1484-28.7 16.8828-38.64 15.3432-4-.6184-9.71-2.1708-16.58-4.0359-15.84-4.3022-37.81-10.2677-58.86-10.2677-24.14 0-38.63-2.617-44.42-3.6641-.37-.0658-.7-.1254-.99-.1778-.46-.3272-1.96-1.0066-5.52-2.2925-2.34-.8453-5-1.8648-7.83-2.9504-10.88-4.1671-24.3-9.3085-31.78-9.3085-3.79 0-14.26-3.6209-26.41-7.8243-18.13-6.2708-40-13.8378-49.04-12.6137-10.98 1.4888-32.97-.2742-46.29-1.3431-4.98-.3993-8.75-.7017-10.29-.7017h-5.66c-1.1 0-8.06-.3437-17.94-.8319v-.0001c-24.21-1.1956-65.957-3.25754-82.03-3.25754-22.637 0-60.353-4.08959-60.353-4.08959l-11.314-2.04479s-39.613 6.13437-50.927 2.04479c-11.314-4.089589-13.201-4.089589-22.637-4.089589-9.065 0-25.081 1.887339-26.325 2.035579-1.244-.14824-17.26-2.035579-26.325-2.035579-9.436 0-11.323 0-22.637 4.089589-11.314 4.08958-50.926-2.04479-50.926-2.04479l-11.314 2.04479s-37.716 4.08959-60.353 4.08959c-16.074 0-57.82 2.06194-82.027 3.25754-9.884.4883-16.845.832-17.939.832h-5.662c-1.539 0-5.31.3024-10.288.7017-13.329 1.0689-35.314 2.8319-46.299 1.3431-9.034-1.2241-30.909 6.3429-49.036 12.6137-12.152 4.2034-22.619 7.8243-26.406 7.8243-7.486 0-20.904 5.1414-31.78 9.3085-2.833 1.0856-5.494 2.1051-7.832 2.9504-3.558 1.286-5.065 1.9654-5.518 2.2925-.295.0524-.625.112-.989.1778-5.796 1.0471-20.28 3.6641-44.42 3.6641-21.051 0-43.02 5.9656-58.864 10.2678-6.868 1.865-12.585 3.4174-16.577 4.0358-9.94 1.5396-23.089-6.1948-38.643-15.3433-5.103-3.0018-10.465-6.1557-16.058-9.1843-22.628-12.2588-118.0043-4.9539-142.5285-2.9091-24.515 2.0448-163.0205 19.2575-163.0205 19.2575s-43.378-4.0896-92.417-8.1792c-49.039-4.0895-132.029-6.1244-192.382 2.0448-60.363 8.1693-203.706 47.0009-203.706 47.0009s-32.064-2.0452-50.926-2.0452z" fill="#eaebea"/></svg>