<svg fill="none" height="702" viewBox="0 0 3024 702" width="3024" xmlns="http://www.w3.org/2000/svg"><path d="m413.75 522.396c-34.211-6.563-232.229 11.53-263.5 0-72-26.549-150.5-100.566-150.5-100.566v280.17h4284.3s-131.55-43.849-148.1-47.181c-5.95-1.196-23.52-5.666-45.64-11.302l-.16-.041-.06-.012c-39.36-10.024-93.05-23.697-121.59-29.171-34.2-6.561-87.11-22.347-122.32-32.856l-.02-.005c-10.76-3.21-19.86-5.926-26.27-7.736-27.41-7.735-112.57-6.193-130.53-4.532-17.95 1.661-97.75 12.787-116.41 16.94-9.74 2.168-46.78-.31-82.01-2.667-32.26-2.158-63-4.214-69.85-2.506-25.5 6.354-39.83 1.468-70.73-9.068-18.2-6.203-42.14-14.365-77.49-23.343-1.06-.27-2.31-.54-3.74-.829-1.41-.285-2.99-.588-4.77-.927-20.07-3.82-64.4-12.261-144.76-50.917-36.03-17.332-101.48-72.863-145.35-128.494-12.74-18.236-29.83-33.279-48.96-50.114l-.01-.012c-12.51-11.015-25.9-22.8-39.52-36.751-3.41-3.49-6.68-6.865-9.88-10.166-30.33-31.261-54.12-55.777-121.03-107.531-145.02-112.1314-336.29-226.9135-513.29-120.5079-4.75 2.8574-12.67 7.4561-22.77 13.3114-43.68 25.3446-127.92 74.2275-170.56 107.1965-66.92 51.754-90.7 76.27-121.03 107.531-3.2 3.301-6.47 6.676-9.88 10.166-13.62 13.951-27.01 25.736-39.52 36.751l-.01.012c-19.13 16.835-36.22 31.878-48.96 50.114-39.87 57.066-109.32 111.162-145.35 128.494-80.36 38.656-124.69 47.097-144.76 50.917l-.03.006c-3.58.682-6.38 1.216-8.48 1.75-35.35 8.978-59.29 17.14-77.49 23.343-30.9 10.536-45.23 15.422-70.73 9.068-6.85-1.708-37.58.348-69.85 2.506-35.23 2.357-72.27 4.835-82.01 2.667-18.66-4.153-98.46-15.279-116.41-16.94-17.96-1.661-103.12-3.203-130.53 4.532-6.413 1.81-15.515 4.526-26.269 7.736l-.014.005c-35.211 10.505-88.121 26.293-122.328 32.856-248.356 47.639-184.666-46.596-420.829-91.897z" fill="#687e5e"/></svg>