<svg fill="none" height="517" viewBox="0 0 3024 517" width="3024" xmlns="http://www.w3.org/2000/svg"><path d="m3131.4 199.019c131.67-7.513 420.87-120.2113 472.01-152.1425l75.24-20.6614 19.49-26.2151h-674.14l-983.56.00640762-3121.34-.00640762c-10.98 236.041-4.24 517.958 110.503 516.456 110.62-1.449 289.777-55.414 397.227-87.78 31.863-9.598 57.42-17.296 73.015-21.162 54.548-13.524 166.936-89.533 216.312-125.847 43.105-24.418 154.414-59.29 286.08238-66.803 239.67462-13.676 477.52762-214.86080328 663.75562-167.9843 186.229 46.8764 340.335 144.6293 472.005 152.1423 131.67 7.514 250.8 58.228 293.9 82.646 49.38 36.314 161.76 112.323 216.31 125.846 13.61 3.374 36.42 10.089 65.36 18.607l.01.003c116.1 34.176 330.82 97.382 445.42 90.333.74-.046 1.49-.097 2.22-.153 110.98-3.155 282.14-55.408 386.38-87.228 32.13-9.808 57.9-17.675 73.59-21.565 54.54-13.523 166.93-89.532 216.31-125.846 43.1-24.418 164.3-73.892 293.9-82.646z" fill="#687e5e"/></svg>