<svg fill="none" height="757" viewBox="0 0 3024 757" width="3024" xmlns="http://www.w3.org/2000/svg"><path d="m-1.75 31.0107v628.8083c119.333-63.3 397.6-182.305 540-140.727 178 51.972 285 137.926 419 137.926 0 0 343.65 19.305 529 36.296 92.96 8.522 335.96 84.035 844 57.991 508.04-26.045 696.04-93.193 696.04-93.193l-2.26-627.1169c-344 14.0665-485.78-31.097379-869.97 68.7593-120.81 12.5546-129.58-10.1429-174.81-5.4354-63.75 6.636-66.1 18.798-100.07 27.224-32.8 8.125-59.73 8.715-82.9 18.68-43.82 18.85-103.8 25.306-131.05 22.408-71.66-7.616-98.98-21.639-108.33-24.587-64.34-20.289-78.12-14.083-98.09-34.572-682.56-176.0334-790.56-72.4621-1460.56-72.4613z" fill="#eaebea"/></svg>