<svg fill="none" height="701" viewBox="0 0 3024 701" width="3024" xmlns="http://www.w3.org/2000/svg"><path d="m1465.84 346.575c-29.89-23.55-198.95-106.667-275.92-112.208-76.97-5.542-146.6-42.944-171.8-60.953-28.865-26.782-94.563-82.8405-126.45-92.8146-9.117-2.8515-24.056-8.5291-42.682-15.6076-62.812-23.8704-167.54-63.6707-232.205-64.739159-.913-.015077-1.813.034446-2.703.147255-.889-.112809-1.79-.162332-2.702-.147255-64.665 1.068449-169.394 40.868759-232.205 64.739159-18.626 7.0783-33.566 12.7561-42.682 15.6076-31.887 9.9741-97.585 66.0326-126.448 92.8146-25.198 18.009-94.836 55.411-171.8044 60.953-11.0182.793-24.1207 3.063-38.23469375 6.633-84.48040625 21.371-212.06790625 85.396-237.68290625 105.575l-43.982 15.238-11.339 20.125 295.21991 319.063h1002.28009c113.25 0 1031.75-66.179 1473.75-55.179s547 53.429 547 53.429l285.07-317.313-11.34-20.125-43.98-15.238c-24.99-19.686-153.19-104.825-230.98-105.591-7.13 0-32.31-5.708-44.94-6.617-444.4-31.994-671.39-34.506-1150.68 0-76.97 5.541-246.02 88.658-275.92 112.208-16.48 10.83-30.29 15.193-43.32 15.009-13.71-.193-30.7-5.066-43.32-15.009z" fill="#c9cac9"/></svg>