<svg fill="none" height="644" viewBox="0 0 3024 644" width="3024" xmlns="http://www.w3.org/2000/svg"><path d="m183.146 393.654c129.797 9.317 414.887 149.074 465.299 188.672 0 0 27.805 25.425 72.423 25.018 44.619-.406 32.728-6.63 72.424-25.018 39.695-18.388 335.498-179.355 465.298-188.672s247.23-72.207 289.73-102.488c48.67-45.032 159.46-139.29 213.23-156.061 15.38-4.795 40.57-14.341 71.98-26.243 105.93-40.1365 282.54-107.05812 391.59-108.85465667.92-.01523134 1.84.00874417 2.75.07144637.91-.0627022 1.83-.08667771 2.75-.07144637 109.05 1.79653667 285.66 68.71815667 391.58 108.85465667 31.41 11.902 56.61 21.448 71.98 26.243 53.78 16.771 164.57 111.029 213.24 156.061 21.72 15.478 64.05 35.834 116.58 56.842 50.23 20.092 109.69 41.092 173.15 45.646 129.79 9.317 414.88 149.074 465.3 188.672l74.16 25.622 19.13 36.052-4648.056-.003c-10.816-292.712-4.172-645.85307 108.937-643.98965667 109.049 1.79653667 285.66 68.71815667 391.583 108.85465667 31.41 11.902 56.605 21.448 71.978 26.243 53.773 16.771 164.564 111.029 213.238 156.061 42.4932 30.281 159.9287 93.171 289.726 102.488z" fill="#687e5e"/></svg>