<svg viewBox="0 0 689.42 202.94" xmlns="http://www.w3.org/2000/svg"><path d="m659.58 105.58 5.25-14.5c.18-.54.41-1.25.69-2.14s.57-1.84.86-2.86.55-1.99.77-2.91c.2.7.47 1.57.79 2.62.33 1.05.65 2.08.98 3.06s.57 1.73.72 2.22l5.18 14.5h-15.24zm29.84 20.62-18.67-49.39h-7.07l-18.77 49.39h7.17l5.38-14.64h19.28l5.45 14.64zm-55.01-49.19h-6.9v49.19h6.9zm-32.42 38.56c-3.16 3.18-7.92 4.78-14.27 4.78h-6.36v-37.55h7.57c3.84 0 7.08.67 9.72 2 2.65 1.33 4.65 3.37 6.02 6.11s2.05 6.21 2.05 10.43c0 6.3-1.58 11.05-4.74 14.23m8.98-27.71c-2-3.58-4.82-6.28-8.48-8.11s-8-2.74-13.02-2.74h-15.01v49.19h13.49c5.52 0 10.21-.94 14.08-2.81s6.82-4.67 8.87-8.38c2.04-3.71 3.06-8.34 3.06-13.88s-1-9.7-2.99-13.27m-49.66 32.38h-20.73v-16.82h19.48v-5.85h-19.48v-14.64h20.73v-5.92h-27.62v49.19h27.62zm-65.75 5.96 15.71-42.23h.3c-.07.94-.14 2.14-.22 3.58-.08 1.45-.14 2.97-.18 4.58-.04 1.6-.07 3.15-.07 4.63v29.44h6.66v-49.19h-9.86l-14.94 40.07h-.23l-14.57-40.07h-9.93v49.19h6.33v-29.04c0-1.64-.03-3.3-.08-5-.06-1.69-.12-3.26-.2-4.71s-.15-2.63-.22-3.55h.27l15.34 42.29h5.89zm-77.21-38.32h11.98v-10.87h-37.28v10.87h12.01v38.32h13.29zm-45.61 0h11.98v-10.87h-37.28v10.87h12.01v38.32h13.29zm-66.32 5.99c.66-2.15 1.73-3.81 3.2-4.98s3.4-1.75 5.8-1.75c3.61 0 6.16 1.29 7.64 3.87s2.22 6.09 2.22 10.53c0 2.96-.32 5.51-.96 7.64s-1.68 3.77-3.13 4.91-3.39 1.72-5.84 1.72-4.26-.57-5.72-1.72c-1.46-1.14-2.52-2.78-3.2-4.91-.67-2.13-1.01-4.68-1.01-7.64s.33-5.52.99-7.67m30.4-5.69c-1.64-3.79-4.21-6.73-7.72-8.82s-8.07-3.13-13.68-3.13-10.05 1.04-13.59 3.11-6.16 5-7.86 8.78c-1.69 3.78-2.54 8.23-2.54 13.34 0 3.84.47 7.31 1.41 10.43s2.39 5.79 4.34 8.02 4.43 3.95 7.45 5.15 6.59 1.8 10.72 1.8 7.84-.6 10.87-1.8 5.51-2.92 7.44-5.17c1.93-2.24 3.35-4.92 4.26-8.02.91-3.11 1.36-6.55 1.36-10.35 0-5.11-.82-9.57-2.46-13.36m-65.78 51.48c2.62-1.32 4.68-3.47 6.16-6.43s2.22-6.91 2.22-11.84v-44.38h-13.36v45.52c0 1.95-.18 3.58-.54 4.88s-.98 2.28-1.87 2.93-2.13.98-3.72.98c-.94 0-1.82-.08-2.62-.25-.81-.17-1.57-.32-2.29-.45v10.33c.83.18 1.81.34 2.94.49s2.45.22 3.95.22c3.45 0 6.49-.66 9.12-1.98"/><path d="m443.29 127.94c3.68 0 6.67-2.99 6.67-6.67s-2.99-6.67-6.67-6.67-6.67 2.99-6.67 6.67 2.99 6.67 6.67 6.67"/><path d="m682.18 151.71h-1.43v13.81c0 .52 0 1.08.02 1.67s.03 1.16.04 1.72c.02.56.03 1.05.04 1.48h-.07l-12.41-18.68h-1.53v21.19h1.41v-13.75c0-.6 0-1.18-.02-1.75s-.03-1.12-.04-1.65c-.01-.54-.03-1.07-.05-1.59h.07l12.45 18.74h1.51v-21.19zm-31.19 11.86h6.27v7.46c-.68.25-1.44.46-2.28.61s-1.79.23-2.85.23c-1.93 0-3.57-.35-4.92-1.06-1.35-.7-2.38-1.76-3.08-3.17s-1.05-3.18-1.05-5.32c0-1.88.36-3.55 1.09-4.99s1.77-2.57 3.14-3.39 3.01-1.22 4.91-1.22c.97 0 1.93.11 2.88.32s1.88.53 2.79.96l.59-1.33c-.92-.42-1.9-.74-2.92-.96-1.02-.21-2.11-.32-3.26-.32-2.24 0-4.16.47-5.77 1.41-1.6.94-2.84 2.23-3.7 3.88s-1.29 3.54-1.29 5.67c0 2.28.39 4.23 1.18 5.86.79 1.62 1.95 2.86 3.48 3.72 1.53.85 3.42 1.28 5.66 1.28 1.29 0 2.5-.1 3.65-.31 1.14-.21 2.22-.52 3.23-.95v-9.73h-7.74v1.36zm-17.08-11.86h-1.48v21.19h1.48zm-9.27 12.93c-.49-.71-1.19-1.31-2.1-1.77-.9-.47-1.98-.92-3.23-1.34-1.06-.36-1.97-.73-2.74-1.1-.77-.38-1.37-.85-1.79-1.42s-.63-1.32-.63-2.25.23-1.64.68-2.23 1.06-1.03 1.84-1.33c.77-.29 1.65-.44 2.64-.44.83 0 1.66.09 2.51.26s1.69.44 2.54.81l.52-1.29c-.84-.38-1.72-.66-2.63-.85s-1.87-.28-2.88-.28c-1.27 0-2.41.21-3.42.62s-1.82 1.01-2.41 1.81-.89 1.78-.89 2.95c0 .85.13 1.59.4 2.21.26.62.65 1.15 1.15 1.59s1.1.83 1.81 1.16 1.49.65 2.36.95c1.24.42 2.27.82 3.08 1.23.82.4 1.43.88 1.84 1.43.41.56.61 1.27.61 2.14 0 .99-.24 1.8-.73 2.45s-1.16 1.13-2.01 1.45-1.82.48-2.92.48c-1.16 0-2.24-.11-3.22-.33s-1.85-.47-2.6-.76v1.49c.46.17.97.33 1.53.46.56.14 1.19.24 1.89.33.7.08 1.47.12 2.33.12 1.37 0 2.6-.21 3.69-.64s1.95-1.07 2.58-1.93.95-1.92.95-3.18c0-1.15-.25-2.08-.74-2.8m-18.73 6.91h-10.03v-9.12h9.47v-1.35h-9.47v-8.03h10.03v-1.35h-11.52v21.19h11.52v-1.35zm-23.09-2.33c-1.58 1.57-3.95 2.35-7.13 2.35h-3.49v-18.55h3.89c2.07 0 3.77.34 5.12 1.02 1.34.68 2.34 1.7 3 3.05.65 1.35.98 3.04.98 5.06 0 3.14-.79 5.49-2.36 7.07m2.74-12.83c-.79-1.54-1.95-2.71-3.47-3.5-1.53-.79-3.42-1.19-5.66-1.19h-5.71v21.19h5.05c2.4 0 4.42-.41 6.04-1.22 1.63-.81 2.86-2.02 3.69-3.62s1.25-3.59 1.25-5.96-.39-4.16-1.18-5.7m-41.05-2.91c.61.57.92 1.33.92 2.28 0 1.06-.36 1.95-1.09 2.67s-1.78 1.41-3.16 2.08c-.86-.89-1.53-1.68-2-2.37s-.71-1.45-.71-2.28c0-.99.32-1.78.97-2.36.64-.58 1.52-.87 2.62-.87 1.02 0 1.83.28 2.45.85m3.31 15.6c-.8.82-1.69 1.49-2.68 2.01s-2.23.78-3.73.78-2.72-.39-3.64-1.17-1.38-1.86-1.38-3.24c0-.91.17-1.67.52-2.28.34-.61.85-1.16 1.52-1.63s1.48-.95 2.44-1.43l6.95 6.97zm-8.4-17.16c-.76.37-1.36.89-1.78 1.56s-.64 1.47-.64 2.38c0 .7.12 1.34.37 1.91.24.57.59 1.12 1.03 1.66s.96 1.11 1.54 1.72c-1.07.55-1.98 1.11-2.74 1.67-.76.57-1.34 1.22-1.74 1.96s-.6 1.64-.6 2.72c0 1.23.27 2.26.82 3.11s1.31 1.49 2.28 1.92c.98.43 2.11.65 3.41.65 1.14 0 2.15-.13 3.03-.4.87-.27 1.66-.64 2.37-1.12s1.37-1.03 1.98-1.65l2.78 2.88h1.96l-3.79-3.85c.69-.83 1.29-1.76 1.79-2.8.5-1.03.9-2.17 1.2-3.41h-1.48c-.24 1.03-.57 1.99-.98 2.88s-.9 1.67-1.46 2.35l-6.62-6.65c1.41-.73 2.55-1.52 3.42-2.38s1.31-1.95 1.31-3.28c0-.91-.2-1.69-.6-2.35s-.96-1.16-1.68-1.51-1.56-.53-2.51-.53c-1.02 0-1.91.18-2.67.55m-29.93 11.64h6.27v7.46c-.68.25-1.44.46-2.28.61s-1.79.23-2.85.23c-1.93 0-3.57-.35-4.92-1.06-1.35-.7-2.38-1.76-3.08-3.17s-1.05-3.18-1.05-5.32c0-1.88.36-3.55 1.09-4.99.72-1.44 1.77-2.57 3.14-3.39s3.01-1.22 4.91-1.22c.97 0 1.93.11 2.88.32s1.88.53 2.79.96l.59-1.33c-.92-.42-1.89-.74-2.92-.96-1.02-.21-2.11-.32-3.27-.32-2.24 0-4.16.47-5.77 1.41-1.6.94-2.84 2.23-3.7 3.88s-1.29 3.54-1.29 5.67c0 2.28.39 4.23 1.18 5.86.79 1.62 1.95 2.86 3.48 3.72 1.53.85 3.42 1.28 5.66 1.28 1.29 0 2.5-.1 3.65-.31 1.14-.21 2.22-.52 3.23-.95v-9.73h-7.74v1.36zm-17.11-11.86h-1.43v13.81c0 .52 0 1.08.02 1.67.01.59.03 1.16.04 1.72s.03 1.05.04 1.48h-.07l-12.41-18.68h-1.53v21.19h1.41v-13.75c0-.6 0-1.18-.02-1.75-.01-.57-.03-1.12-.04-1.65-.02-.54-.03-1.07-.05-1.59h.07l12.45 18.74h1.51v-21.19zm-25.35 0v13.86c0 1.34-.25 2.48-.75 3.43-.5.94-1.23 1.66-2.18 2.15s-2.1.73-3.46.73c-2.07 0-3.65-.55-4.75-1.66s-1.65-2.72-1.65-4.85v-13.65h-1.47v13.65c0 2.48.67 4.41 2.02 5.77s3.27 2.05 5.78 2.05c1.65 0 3.07-.3 4.26-.91s2.1-1.49 2.73-2.65c.63-1.15.95-2.56.95-4.21v-13.71zm-19.76 21.19v-1.36h-10.03v-19.83h-1.48v21.19h11.52zm-26.67-12.22 8.62-8.97h-1.85l-8.32 8.67c-.39.43-.79.84-1.17 1.25-.39.41-.76.82-1.12 1.22v-11.14h-1.48v21.19h1.48v-8.52l2.74-2.65 8.16 11.17h1.8zm-15.02-7.66c.82.18 1.61.46 2.39.85l.58-1.3c-.81-.38-1.67-.67-2.59-.86-.92-.2-1.88-.3-2.89-.3-1.59 0-3.02.27-4.27.8-1.25.54-2.31 1.29-3.18 2.26s-1.53 2.12-1.98 3.43c-.45 1.32-.68 2.77-.68 4.34 0 2.19.36 4.11 1.08 5.75s1.79 2.92 3.22 3.83 3.19 1.36 5.3 1.36c1.16 0 2.18-.08 3.06-.25.88-.16 1.67-.38 2.37-.64v-1.3c-.74.25-1.54.46-2.41.62-.86.16-1.83.24-2.88.24-1.82 0-3.33-.4-4.55-1.19s-2.13-1.91-2.73-3.36c-.61-1.44-.91-3.13-.91-5.06 0-1.4.19-2.68.58-3.85.38-1.16.94-2.17 1.67-3.01s1.62-1.49 2.68-1.95 2.26-.69 3.6-.69c.86 0 1.71.09 2.52.27m-20.29-1.31h-1.48v21.19h1.48zm-9.67 0-4.05 14.97c-.14.55-.27 1.06-.39 1.52-.11.46-.21.91-.3 1.33-.08.42-.16.85-.24 1.28-.07-.32-.14-.63-.2-.95-.07-.31-.14-.64-.22-.97s-.16-.68-.26-1.05-.2-.76-.32-1.17l-4.29-14.96h-1.48l-4.14 14.87c-.12.4-.22.77-.31 1.14-.09.36-.18.71-.26 1.05s-.16.67-.22 1c-.07.33-.14.65-.2.97-.06-.32-.12-.63-.19-.95-.07-.31-.15-.64-.22-.97-.08-.33-.16-.68-.25-1.04s-.19-.73-.3-1.13l-3.96-14.94h-1.53l5.68 21.19h1.46l4.5-16.38c.08-.28.15-.55.22-.81s.13-.51.19-.75.11-.48.15-.7c.04-.23.08-.44.12-.64.04.2.09.43.15.67.06.25.13.51.2.78s.15.56.23.87c.08.3.17.63.28.96l4.51 16h1.44l5.75-21.19h-1.54zm-35.42 1.35h6.83v-1.35h-15.16v1.35h6.83v19.84h1.5zm-14.71-1.35h-1.43v13.81c0 .52 0 1.08.02 1.67.01.59.03 1.16.04 1.72s.03 1.05.04 1.48h-.07l-12.41-18.68h-1.53v21.19h1.41v-13.75c0-.6 0-1.18-.02-1.75-.01-.57-.03-1.12-.04-1.65-.02-.54-.03-1.07-.05-1.59h.07l12.45 18.74h1.51v-21.19zm-22.53 19.84h-10.03v-9.12h9.47v-1.35h-9.47v-8.03h10.03v-1.35h-11.52v21.19h11.52v-1.35z"/><path d="m130.46 134.08c.46-.31.91-.63 1.36-.97.52-.39 1.04-.81 1.53-1.24.55-.48 1.08-.99 1.6-1.52.28-.29.55-.58.82-.88 3.34-3.71 5.94-8.52 7.77-14.42 0 0 0-.01 0-.02.04-.12.07-.23.1-.35.1-.32.19-.64.29-.97.03-.1.05-.2.08-.3s.05-.19.08-.29c.04-.14.07-.28.11-.42.71-2.76 1.23-5.78 1.56-9.03.19-1.84.32-3.76.39-5.75s0-.07 0-.1c0-.05 0-.1 0-.15 0 0 0-.02 0-.03 0-.29.02-.58.02-.87 0-.38.01-.76.02-1.14 0-.49.03-.96.03-1.46v-67.09l.06-.89.14-2.18c.03-.43.07-.85.11-1.25.1-.87.24-1.64.42-2.31 0-.01 0-.02 0-.03 0-.02.01-.05.02-.07 0-.01 0-.02 0-.03.02-.06.03-.11.05-.17s.04-.13.06-.19c0-.01 0-.03.01-.04 0 0 0-.01 0-.02 0-.02.01-.04.02-.07 0-.01 0-.02.01-.04.01-.03.02-.06.03-.09.05-.13.09-.25.14-.37 0-.01 0-.02.01-.03s0-.02.01-.03c.06-.14.12-.27.18-.39v-.03s.01 0 .02 0c.02-.05.05-.1.08-.14.05-.1.1-.19.16-.28.57-.94 1.27-1.58 2.09-1.9.12-.05.24-.09.37-.13.26-.08.52-.15.79-.2.15-.03.31-.05.47-.07.48-.06.98-.07 1.5-.04.67.05 1.31.13 1.92.25.18.04.36.07.53.12.76.21 1.21.34 2.3.73.09.03.18.07.28.1 0 0-.42-.29-.42-.29-3.4-2.27-8.96-5.54-10.38-6.06-1.58-.66-3.3-.78-4.17-.84-1.15-.08-2.19.08-3.13.45-.94.38-1.72 1.15-2.33 2.33-.61 1.17-.99 2.9-1.14 5.17l-.15 2.26v84.08c0 9.78-1.52 17.68-4.57 23.69-1.8 3.55-4.02 6.52-6.65 8.93 1.87-.81 3.65-1.79 5.33-2.92" fill="#7c7b7b"/><path d="m158.18 17.34s-.07-.04-.11-.06c-.1-.04-.19-.07-.28-.1-1.08-.39-1.54-.52-2.29-.73-.17-.04-.35-.08-.53-.12-.61-.12-1.25-.21-1.92-.25-.52-.03-1.02-.02-1.5.04-.16.02-.32.04-.47.07-.27.05-.53.12-.79.2-.12.04-.25.09-.37.14-.82.33-1.52.96-2.09 1.9-.05.09-.11.18-.16.28-.03.05-.05.1-.08.15s0 .02-.01.03c-.06.12-.12.26-.18.39 0 0 0 .02-.01.03 0 .01 0 .02-.01.03-.05.12-.1.24-.14.37-.01.03-.02.06-.03.1 0 .01 0 .02-.01.03 0 .02-.01.05-.02.07v.02c0 .02-.01.03-.01.05-.02.06-.04.12-.06.19-.02.05-.03.11-.05.17v.03c0 .02-.02.05-.02.07v.03c-.18.68-.33 1.45-.43 2.32-.04.39-.08.81-.11 1.25l-.14 2.18-.06.88v67.09c0 .5-.02.97-.03 1.46 0 .38-.01.76-.02 1.14 0 .29-.01.58-.02.87v.03.14.11c-.07 2-.2 3.91-.39 5.75-.33 3.26-.86 6.27-1.56 9.03-.02.08-.04.16-.06.23v.02c-.01.05-.03.1-.04.15v.02c-.03.1-.05.2-.08.29-.03.1-.05.2-.08.3-.09.33-.19.65-.28.97-.01.04-.02.08-.03.12v.02c-.02.07-.04.14-.07.21v.02c-1.84 5.9-4.43 10.7-7.77 14.42-.27.3-.54.59-.82.88-.52.53-1.05 1.04-1.6 1.52-.5.43-1.01.85-1.53 1.24-.45.33-.9.66-1.36.97-1.68 1.14-5.33 2.92-5.32 2.92 0 0-.17.13-.45.35-1.31 1.15-2.72 2.14-4.23 3.02-.49.31-.96.58-1.4.8-5.44 2.73-11.72 4.1-18.85 4.1-3.12 0-5.87-.17-8.24-.51s-4.38-.74-6.05-1.21v-20.14s11.65-8.75 11.65-8.75c.05.01.1.02.15.03.96.21 1.99.41 3.08.61 1.1.2 2.28.29 3.52.29 1.63 0 3.1-.31 4.4-.93 1.27-.6 2.25-1.74 3.01-3.39.26-1.97.4-4.19.4-6.69v-98.24c-.03-.76-.34-2.33-.7-3.13-.53-1.21-1.26-2.04-2.17-2.47-.64-.3-1.34-.5-2.1-.59-1.89-.1-3.78-.16-5.7-.16-56.13-.01-101.56 45.42-101.56 101.45 0 56.05 45.43 101.48 101.47 101.48s101.47-45.43 101.47-101.47c0-35.03-17.77-65.9-44.77-84.13"/><path d="m97.32 124.99c2.81 0 5.33-.53 7.57-1.6.48-.23 1.05-.56 1.61-.95 1.49-1.16 2.73-2.84 3.7-5.05.57-1.31 1.02-2.87 1.34-4.68.06-.46.12-.94.19-1.43-.75 1.65-1.74 2.79-3.01 3.39-1.3.62-2.77.93-4.4.93-1.24 0-2.41-.1-3.52-.29-1.09-.2-2.12-.4-3.08-.61-.05-.01-.1-.02-.15-.03l-11.65 8.75c1.66.36 3.44.73 5.34 1.07s3.91.51 6.05.51" fill="#7c7b7b"/></svg>